<svg width="23" height="22" viewBox="0 0 23 22" fill="none" xmlns="http://www.w3.org/2000/svg">
<mask id="mask0_7_1890" style="mask-type:alpha" maskUnits="userSpaceOnUse" x="0" y="0" width="23" height="23">
<path d="M11.2062 0.000427246C17.2807 0.000427246 22.2048 4.92453 22.2048 10.9991C22.2048 17.0736 17.2807 21.9977 11.2062 21.9977C9.42685 22.0001 7.67373 21.569 6.09841 20.7417L1.37999 21.9702C1.22233 22.0113 1.05667 22.0105 0.899445 21.9678C0.742216 21.9251 0.598869 21.8421 0.483612 21.7269C0.368356 21.6118 0.28519 21.4685 0.242359 21.3113C0.199527 21.1541 0.198516 20.9885 0.239426 20.8308L1.46688 16.1135C0.637357 14.5365 0.205078 12.7809 0.20753 10.9991C0.20753 4.92453 5.13163 0.000427246 11.2062 0.000427246Z" fill="#FFFFFF"/>
</mask>
<g mask="url(#mask0_7_1890)">
<rect x="-0.793945" y="-0.999573" width="24" height="24" fill="#DFD6DD"/>
</g>
</svg>