<svg width="18" height="24" viewBox="0 0 18 24" fill="none" xmlns="http://www.w3.org/2000/svg">
<mask id="mask0_7_1890" style="mask-type:alpha" maskUnits="userSpaceOnUse" x="0" y="0" width="18" height="25">
<path fill-rule="evenodd" clip-rule="evenodd" d="M10.7662 0.0609526C11.0098 0.146081 11.2226 0.315345 11.3737 0.544126C11.5248 0.772907 11.6062 1.04928 11.6062 1.33304V8.00015H16.4062C16.6257 8.00004 16.841 8.06684 17.0287 8.19326C17.2164 8.31969 17.3694 8.50091 17.4708 8.71719C17.5723 8.93348 17.6184 9.17654 17.6042 9.41994C17.59 9.66333 17.516 9.89773 17.3902 10.0976L8.9902 23.4319C8.844 23.6646 8.63479 23.8394 8.39301 23.9309C8.15122 24.0224 7.88947 24.0258 7.64583 23.9405C7.4022 23.8553 7.1894 23.6859 7.03839 23.457C6.88738 23.2281 6.80604 22.9516 6.8062 22.6678V16.0007H2.0062C1.7867 16.0008 1.57137 15.934 1.38366 15.8076C1.19595 15.6812 1.04304 15.4999 0.94157 15.2837C0.840103 15.0674 0.793968 14.8243 0.808184 14.5809C0.8224 14.3375 0.896423 14.1031 1.0222 13.9032L9.4222 0.568987C9.56861 0.336687 9.77786 0.162309 10.0196 0.0711881C10.2613 -0.0199331 10.5228 -0.0230515 10.7662 0.0622861V0.0609526Z" fill="#FFFFFF"/>
</mask>
<g mask="url(#mask0_7_1890)">
<rect x="-2.79395" y="0.000488281" width="24" height="24" fill="#DFD6DD"/>
</g>
</svg>